<?xml version="1.0" encoding="UTF-8" standalone="no"?>
<!-- Created with Inkscape (http://www.inkscape.org/) -->

<svg
   xmlns:dc="http://purl.org/dc/elements/1.1/"
   xmlns:cc="http://creativecommons.org/ns#"
   xmlns:rdf="http://www.w3.org/1999/02/22-rdf-syntax-ns#"
   xmlns:svg="http://www.w3.org/2000/svg"
   xmlns="http://www.w3.org/2000/svg"
   xmlns:sodipodi="http://sodipodi.sourceforge.net/DTD/sodipodi-0.dtd"
   xmlns:inkscape="http://www.inkscape.org/namespaces/inkscape"
   id="svg2883"
   version="1.1"
   inkscape:version="0.47 r22583"
   width="700"
   height="525"
   sodipodi:docname="src-graveyard.svg"
   inkscape:export-filename="/home/cvillaronga/Dropbox/Clientes/TRIPOLI/src-graveyard.png"
   inkscape:export-xdpi="120"
   inkscape:export-ydpi="120">
  <metadata
     id="metadata2889">
    <rdf:RDF>
      <cc:Work
         rdf:about="">
        <dc:format>image/svg+xml</dc:format>
        <dc:type
           rdf:resource="http://purl.org/dc/dcmitype/StillImage" />
        <dc:title></dc:title>
      </cc:Work>
    </rdf:RDF>
  </metadata>
  <defs
     id="defs2887">
    <inkscape:perspective
       sodipodi:type="inkscape:persp3d"
       inkscape:vp_x="0 : 0.5 : 1"
       inkscape:vp_y="0 : 1000 : 0"
       inkscape:vp_z="1 : 0.5 : 1"
       inkscape:persp3d-origin="0.5 : 0.33333333 : 1"
       id="perspective2891" />
  </defs>
  <sodipodi:namedview
     pagecolor="#ffffff"
     bordercolor="#666666"
     borderopacity="1"
     objecttolerance="10"
     gridtolerance="10"
     guidetolerance="10"
     inkscape:pageopacity="0"
     inkscape:pageshadow="2"
     inkscape:window-width="1680"
     inkscape:window-height="1000"
     id="namedview2885"
     showgrid="false"
     inkscape:zoom="1.3253201"
     inkscape:cx="242.85943"
     inkscape:cy="195.77949"
     inkscape:window-x="0"
     inkscape:window-y="0"
     inkscape:window-maximized="1"
     inkscape:current-layer="svg2883" />
  <g
     id="g2846"
     style="opacity:0.7">
    <path
       inkscape:export-ydpi="120"
       inkscape:export-xdpi="120"
       id="rect3675"
       d="m 522.9375,101.46978 c -0.39475,-0.007 -0.79166,8.3e-4 -1.1875,0.0312 -10.47472,2.12472 -17.80147,10.88448 -27.21875,15.46875 -55.38144,35.38594 -110.85479,70.62242 -166.3125,105.90625 l 2.15625,3.375 c 53.10872,-33.75245 106.24056,-67.47723 159.21875,-101.40625 11.33748,-5.62439 20.47705,-15.53418 32.625,-19.34375 0.31813,-0.0283 0.64747,-0.0455 0.96875,-0.0312 0.96383,0.0426 1.921,0.27802 2.8125,0.625 8.04446,8.13406 14.08885,18.05798 20.0625,28.0625 l 3.375,-2.15625 c -5.92627,-9.56685 -11.93574,-19.07558 -18.8125,-27.90625 -2.21923,-1.63882 -4.92424,-2.5779 -7.6875,-2.625 z m 29.59375,35.5 -3.4375,2.21875 c 2.61069,4.35012 5.27645,8.6746 8.125,12.8125 4.14358,6.21208 12.20737,14.11947 7.21875,22 -63.01606,40.91991 -126.39785,81.34058 -189.84375,121.6875 l 2.15625,3.34375 c 63.284,-40.27915 126.53736,-80.608 189.59375,-121.1875 6.65734,-6.25568 3.44338,-16.69251 -2.09375,-22.5 -4.06002,-6.01413 -7.89426,-12.18432 -11.71875,-18.375 z m -229.25,89.0625 c -63.29396,40.27249 -126.56928,80.59701 -189.625,121.1875 -6.65734,6.25568 -3.44338,16.69251 2.09375,22.5 4.06734,5.99255 7.9065,12.15567 11.71875,18.34375 l 3.40625,-2.15625 c -2.44862,-4.05486 -4.92968,-8.08926 -7.53125,-12 -4.1352,-6.52813 -12.92441,-14.56432 -7.78125,-22.84375 62.9949,-40.93822 126.39544,-81.32719 189.84375,-121.65625 l -2.125,-3.375 z m 46.375,72.8125 c -57.63642,36.64642 -115.32564,73.23145 -172.84375,110.03125 -7.38579,3.61999 -14.14784,12.83403 -23.1875,10 -7.73457,-8.35623 -13.79537,-18.11751 -19.71875,-27.9375 l -3.34375,2.125 c 5.96648,9.65861 12.0206,19.25783 19.03125,28.09375 6.91647,5.15292 15.9726,1.04447 21.65625,-4 60.12625,-38.38923 120.33928,-76.66128 180.53125,-114.96875 l -2.125,-3.34375 z"
       style="fill:#808080;fill-opacity:0.94117647000000004;stroke:none" />
    <path
       d="m 208.81532,358.10622 5.02965,-3.20424 5.67593,8.90942 c 2.19997,3.45327 0.77891,6.10631 -2.74185,8.34927 -3.52075,2.24297 -6.52579,2.40966 -8.72576,-1.0436 L 191.42151,345.0104 c -2.19997,-3.45326 -0.82291,-6.17537 2.69784,-8.41834 3.52075,-2.24297 6.56979,-2.34059 8.76976,1.11267 l 3.29996,5.1799 10.46167,-6.66483 -2.99196,-4.69643 c -4.92793,-7.73531 -13.37712,-8.56674 -24.24116,-1.64559 -10.86403,6.92116 -13.68128,14.9301 -8.75335,22.66541 l 16.0158,25.13976 c 4.92793,7.7353 13.37712,8.56673 24.24115,1.64558 10.86403,-6.92116 13.68129,-14.9301 8.75335,-22.6654 l -9.76787,-15.33249 -15.49132,9.86906 4.39994,6.90652"
       style="font-size:98.82904053000000033px;font-style:normal;font-variant:normal;font-weight:normal;font-stretch:normal;line-height:-1333716.40625000000000000%;letter-spacing:-2.91019940000000021;fill:#808080;fill-opacity:1;stroke:none;font-family:Bebas Neue;-inkscape-font-specification:Bebas Neue"
       id="path2819" />
    <path
       d="m 275.71212,343.64611 c -2.25051,-1.09077 -3.45109,-2.75332 -4.94707,-5.10153 l -4.75194,-7.45906 c -3.21195,-5.04175 -7.3546,-7.54869 -13.8992,-5.61253 3.91707,-4.72865 4.16273,-9.44868 0.99478,-14.42138 l -2.41997,-3.79859 c -4.75194,-7.45904 -12.01298,-7.97934 -23.48057,-0.67368 l -16.69844,10.63808 30.7996,48.34569 11.06524,-7.04933 -12.53984,-19.6836 3.82253,-2.43522 c 5.02964,-3.20424 8.29868,-2.95654 11.15864,1.53269 l 4.83994,7.59719 c 2.50797,3.93672 3.39434,4.44009 4.78989,5.29877 l 11.26641,-7.1775 m -44.40581,-29.96799 c 3.92312,-2.49931 6.6012,-2.06931 8.80117,1.38395 l 3.03596,4.76551 c 2.46397,3.86765 0.74113,6.71294 -3.38318,9.34042 l -4.3255,2.75565 -9.45988,-14.84904 5.33143,-3.39649"
       style="font-size:98.82904053000000033px;font-style:normal;font-variant:normal;font-weight:normal;font-stretch:normal;line-height:-1333716.40625000000000000%;letter-spacing:-2.91019940000000021;fill:#808080;fill-opacity:1;stroke:none;font-family:Bebas Neue;-inkscape-font-specification:Bebas Neue"
       id="path2821" />
    <path
       d="m 272.56523,277.6837 -16.19547,10.31765 19.53318,55.52319 10.1599,-6.47256 -3.67667,-9.98891 13.58006,-8.65145 7.4992,7.55368 11.16582,-7.11341 -42.06602,-41.16819 m -3.19507,14.07538 20.90723,21.05261 -10.66286,6.79299 -10.24437,-27.8456"
       style="font-size:98.82904053000000033px;font-style:normal;font-variant:normal;font-weight:normal;font-stretch:normal;line-height:-1333716.40625000000000000%;letter-spacing:-2.91019940000000021;fill:#808080;fill-opacity:1;stroke:none;font-family:Bebas Neue;-inkscape-font-specification:Bebas Neue"
       id="path2823" />
    <path
       d="m 291.61881,265.54523 -11.16582,7.11341 41.66365,41.42453 16.49725,-10.50991 -19.93556,-55.26685 -10.15989,6.47257 16.67386,44.81939 -33.57349,-34.05314"
       style="font-size:98.82904053000000033px;font-style:normal;font-variant:normal;font-weight:normal;font-stretch:normal;line-height:-1333716.40625000000000000%;letter-spacing:-2.91019940000000021;fill:#808080;fill-opacity:1;stroke:none;font-family:Bebas Neue;-inkscape-font-specification:Bebas Neue"
       id="path2825" />
    <path
       d="m 336.34618,246.76035 19.11267,-12.17611 -4.39995,-6.90653 -30.1779,19.22544 30.79961,48.3457 30.1779,-19.22544 -4.39995,-6.90654 -19.11266,12.17611 -9.01988,-14.15838 15.18953,-9.6768 -4.39994,-6.90653 -15.18954,9.6768 -8.57989,-13.46772"
       style="font-size:98.82904053000000033px;font-style:normal;font-variant:normal;font-weight:normal;font-stretch:normal;line-height:-1333716.40625000000000000%;letter-spacing:-2.91019940000000021;fill:#808080;fill-opacity:1;stroke:none;font-family:Bebas Neue;-inkscape-font-specification:Bebas Neue"
       id="path2827" />
    <path
       d="m 396.01605,267.00406 11.06524,-7.04934 -10.20787,-16.02314 -6.60931,-41.23034 -10.56226,6.72891 5.586,27.41494 -22.48563,-16.6487 -11.5682,7.36976 34.57416,23.41476 10.20787,16.02315"
       style="font-size:98.82904053000000033px;font-style:normal;font-variant:normal;font-weight:normal;font-stretch:normal;line-height:-1333716.40625000000000000%;letter-spacing:-2.91019940000000021;fill:#808080;fill-opacity:1;stroke:none;font-family:Bebas Neue;-inkscape-font-specification:Bebas Neue"
       id="path2829" />
    <path
       d="m 411.40971,189.23001 -16.19547,10.31765 19.53318,55.5232 10.1599,-6.47257 -3.67666,-9.9889 13.58005,-8.65145 7.4992,7.55368 11.16583,-7.11342 -42.06603,-41.16819 m -3.19506,14.07538 20.90722,21.05262 -10.66286,6.79299 -10.24436,-27.84561"
       style="font-size:98.82904053000000033px;font-style:normal;font-variant:normal;font-weight:normal;font-stretch:normal;line-height:-1333716.40625000000000000%;letter-spacing:-2.91019940000000021;fill:#808080;fill-opacity:1;stroke:none;font-family:Bebas Neue;-inkscape-font-specification:Bebas Neue"
       id="path2831" />
    <path
       d="m 489.97119,207.14804 c -2.25051,-1.09077 -3.45109,-2.75332 -4.94707,-5.10154 l -4.75194,-7.45905 c -3.21195,-5.04176 -7.35461,-7.54869 -13.89921,-5.61253 3.91707,-4.72865 4.16274,-9.44868 0.99478,-14.42138 l -2.41997,-3.79859 c -4.75193,-7.45904 -12.01297,-7.97934 -23.48056,-0.67368 l -16.69844,10.63808 30.7996,48.34569 11.06523,-7.04933 -12.53984,-19.6836 3.82253,-2.43522 c 5.02965,-3.20424 8.29869,-2.95655 11.15865,1.53269 l 4.83994,7.59719 c 2.50797,3.93671 3.39433,4.4401 4.78989,5.29876 l 11.26641,-7.17749 m -44.40581,-29.96799 c 3.92312,-2.49931 6.6012,-2.06932 8.80117,1.38395 l 3.03596,4.7655 c 2.46397,3.86766 0.74113,6.71295 -3.38319,9.34043 l -4.3255,2.75565 -9.45987,-14.84904 5.33143,-3.39649"
       style="font-size:98.82904053000000033px;font-style:normal;font-variant:normal;font-weight:normal;font-stretch:normal;line-height:-1333716.40625000000000000%;letter-spacing:-2.91019940000000021;fill:#808080;fill-opacity:1;stroke:none;font-family:Bebas Neue;-inkscape-font-specification:Bebas Neue"
       id="path2833" />
    <path
       d="m 493.07921,205.16801 17.50319,-11.15076 c 11.06522,-7.04932 13.81328,-14.72291 8.88535,-22.45821 l -15.5758,-24.44911 c -4.92793,-7.7353 -13.04394,-8.4877 -24.10915,-1.43838 l -17.50319,11.15076 30.7996,48.3457 m -9.09766,-52.46176 c 3.52075,-2.24297 6.42521,-2.34557 8.62518,1.10769 l 16.01579,25.13976 c 2.19997,3.45325 0.8795,6.04222 -2.64125,8.28519 l -6.23677,3.97325 -21.99971,-34.53263 6.23676,-3.97326"
       style="font-size:98.82904053000000033px;font-style:normal;font-variant:normal;font-weight:normal;font-stretch:normal;line-height:-1333716.40625000000000000%;letter-spacing:-2.91019940000000021;fill:#808080;fill-opacity:1;stroke:none;font-family:Bebas Neue;-inkscape-font-specification:Bebas Neue"
       id="path2835" />
  </g>
</svg>
