<?xml version="1.0" encoding="UTF-8" standalone="no"?>
<!--
Licensed to the Apache Software Foundation (ASF) under one
or more contributor license agreements.  See the NOTICE file
distributed with this work for additional information
regarding copyright ownership.  The ASF licenses this file
to you under the Apache License, Version 2.0 (the
"License"); you may not use this file except in compliance
with the License.  You may obtain a copy of the License at

  http://www.apache.org/licenses/LICENSE-2.0

Unless required by applicable law or agreed to in writing,
software distributed under the License is distributed on an
"AS IS" BASIS, WITHOUT WARRANTIES OR CONDITIONS OF ANY
KIND, either express or implied.  See the License for the
specific language governing permissions and limitations
under the License.
-->

<!-- Created with Inkscape (http://www.inkscape.org/) -->

<svg
   xmlns:dc="http://purl.org/dc/elements/1.1/"
   xmlns:cc="http://creativecommons.org/ns#"
   xmlns:rdf="http://www.w3.org/1999/02/22-rdf-syntax-ns#"
   xmlns:svg="http://www.w3.org/2000/svg"
   xmlns="http://www.w3.org/2000/svg"
   xmlns:sodipodi="http://sodipodi.sourceforge.net/DTD/sodipodi-0.dtd"
   xmlns:inkscape="http://www.inkscape.org/namespaces/inkscape"
   id="svg2883"
   version="1.1"
   inkscape:version="0.47 r22583"
   width="700"
   height="525"
   sodipodi:docname="src-sandbox.svg"
   inkscape:export-filename="/home/cvillaronga/Dropbox/Clientes/TRIPOLI/src-sandbox.png"
   inkscape:export-xdpi="120"
   inkscape:export-ydpi="120">
  <metadata
     id="metadata2889">
    <rdf:RDF>
      <cc:Work
         rdf:about="">
        <dc:format>image/svg+xml</dc:format>
        <dc:type
           rdf:resource="http://purl.org/dc/dcmitype/StillImage" />
        <dc:title></dc:title>
      </cc:Work>
    </rdf:RDF>
  </metadata>
  <defs
     id="defs2887">
    <inkscape:perspective
       sodipodi:type="inkscape:persp3d"
       inkscape:vp_x="0 : 0.5 : 1"
       inkscape:vp_y="0 : 1000 : 0"
       inkscape:vp_z="1 : 0.5 : 1"
       inkscape:persp3d-origin="0.5 : 0.33333333 : 1"
       id="perspective2891" />
  </defs>
  <sodipodi:namedview
     pagecolor="#ffffff"
     bordercolor="#666666"
     borderopacity="1"
     objecttolerance="10"
     gridtolerance="10"
     guidetolerance="10"
     inkscape:pageopacity="0"
     inkscape:pageshadow="2"
     inkscape:window-width="1680"
     inkscape:window-height="1000"
     id="namedview2885"
     showgrid="false"
     inkscape:zoom="1.3253201"
     inkscape:cx="407.25327"
     inkscape:cy="191.27784"
     inkscape:window-x="0"
     inkscape:window-y="0"
     inkscape:window-maximized="1"
     inkscape:current-layer="svg2883" />
  <g
     id="g2967"
     style="opacity:0.7">
    <path
       inkscape:export-ydpi="120"
       inkscape:export-xdpi="120"
       id="rect3675"
       d="m 522.9375,101.46978 c -0.39475,-0.007 -0.79166,8.3e-4 -1.1875,0.0312 -10.47472,2.12472 -17.80147,10.88448 -27.21875,15.46875 -55.38144,35.38594 -110.85479,70.62242 -166.3125,105.90625 l 2.15625,3.375 c 53.10872,-33.75245 106.24056,-67.47723 159.21875,-101.40625 11.33748,-5.62439 20.47705,-15.53418 32.625,-19.34375 0.31813,-0.0283 0.64747,-0.0455 0.96875,-0.0312 0.96383,0.0426 1.921,0.27802 2.8125,0.625 8.04446,8.13406 14.08885,18.05798 20.0625,28.0625 l 3.375,-2.15625 c -5.92627,-9.56685 -11.93574,-19.07558 -18.8125,-27.90625 -2.21923,-1.63882 -4.92424,-2.5779 -7.6875,-2.625 z m 29.59375,35.5 -3.4375,2.21875 c 2.61069,4.35012 5.27645,8.6746 8.125,12.8125 4.14358,6.21208 12.20737,14.11947 7.21875,22 -63.01606,40.91991 -126.39785,81.34058 -189.84375,121.6875 l 2.15625,3.34375 c 63.284,-40.27915 126.53736,-80.608 189.59375,-121.1875 6.65734,-6.25568 3.44338,-16.69251 -2.09375,-22.5 -4.06002,-6.01413 -7.89426,-12.18432 -11.71875,-18.375 z m -229.25,89.0625 c -63.29396,40.27249 -126.56928,80.59701 -189.625,121.1875 -6.65734,6.25568 -3.44338,16.69251 2.09375,22.5 4.06734,5.99255 7.9065,12.15567 11.71875,18.34375 l 3.40625,-2.15625 c -2.44862,-4.05486 -4.92968,-8.08926 -7.53125,-12 -4.1352,-6.52813 -12.92441,-14.56432 -7.78125,-22.84375 62.9949,-40.93822 126.39544,-81.32719 189.84375,-121.65625 l -2.125,-3.375 z m 46.375,72.8125 c -57.63642,36.64642 -115.32564,73.23145 -172.84375,110.03125 -7.38579,3.61999 -14.14784,12.83403 -23.1875,10 -7.73457,-8.35623 -13.79537,-18.11751 -19.71875,-27.9375 l -3.34375,2.125 c 5.96648,9.65861 12.0206,19.25783 19.03125,28.09375 6.91647,5.15292 15.9726,1.04447 21.65625,-4 60.12625,-38.38923 120.33928,-76.66128 180.53125,-114.96875 l -2.125,-3.34375 z"
       style="fill:#c83737;fill-opacity:0.94117647000000004;stroke:none" />
    <path
       d="m 210.81057,333.33781 c 8.79988,13.81304 31.61538,1.8996 37.95129,11.84499 2.19997,3.45326 0.77891,6.1063 -2.74184,8.34927 -3.52075,2.24296 -6.52579,2.40966 -8.72576,-1.0436 l -2.19997,-3.45327 -10.46168,6.66482 1.89198,2.96981 c 4.92793,7.7353 13.37712,8.56673 24.24115,1.64558 10.86404,-6.92115 13.68129,-14.93009 8.75336,-22.6654 -8.79988,-13.81304 -31.61538,-1.89959 -37.95129,-11.84498 -2.19997,-3.45327 -1.0241,-6.0472 2.49665,-8.29017 3.52075,-2.24297 6.36861,-2.21242 8.56858,1.24084 l 1.27598,2.00289 10.46167,-6.66482 -0.96799,-1.51944 c -4.92793,-7.7353 -13.27652,-8.63081 -24.03996,-1.77375 -10.76344,6.85707 -13.4801,14.80193 -8.55217,22.53723"
       style="font-size:98.82904053000000033px;font-style:normal;font-variant:normal;font-weight:normal;font-stretch:normal;line-height:-1333716.40625000000000000%;letter-spacing:-2.91019940000000021;fill:#c83737;fill-opacity:1;stroke:none;font-family:Bebas Neue;-inkscape-font-specification:Bebas Neue"
       id="path2946" />
    <path
       d="m 263.93543,283.18142 -16.19547,10.31766 19.53318,55.52318 10.1599,-6.47256 -3.67666,-9.9889 13.58005,-8.65145 7.4992,7.55367 11.16582,-7.11341 -42.06602,-41.16819 m -3.19507,14.07539 20.90723,21.05261 -10.66286,6.79299 -10.24437,-27.8456"
       style="font-size:98.82904053000000033px;font-style:normal;font-variant:normal;font-weight:normal;font-stretch:normal;line-height:-1333716.40625000000000000%;letter-spacing:-2.91019940000000021;fill:#c83737;fill-opacity:1;stroke:none;font-family:Bebas Neue;-inkscape-font-specification:Bebas Neue"
       id="path2948" />
    <path
       d="m 331.73347,307.95651 11.36701,-7.24159 -30.7996,-48.34568 -9.85812,6.28031 18.43576,28.93834 -29.80277,-21.69676 -13.88183,8.84371 30.7996,48.34568 9.9587,-6.34439 -22.30771,-35.01609 36.08896,26.23647"
       style="font-size:98.82904053000000033px;font-style:normal;font-variant:normal;font-weight:normal;font-stretch:normal;line-height:-1333716.40625000000000000%;letter-spacing:-2.91019940000000021;fill:#c83737;fill-opacity:1;stroke:none;font-family:Bebas Neue;-inkscape-font-specification:Bebas Neue"
       id="path2950" />
    <path
       d="m 348.15906,297.49225 17.50318,-11.15075 c 11.06522,-7.04932 13.81329,-14.7229 8.88535,-22.4582 L 358.9718,239.43419 c -4.92794,-7.7353 -13.04394,-8.4877 -24.10916,-1.43838 l -17.50318,11.15075 30.7996,48.34569 M 339.0614,245.0305 c 3.52075,-2.24296 6.4252,-2.34557 8.62517,1.10769 l 16.0158,25.13976 c 2.19996,3.45326 0.87949,6.04223 -2.64126,8.28519 l -6.23676,3.97326 -21.99972,-34.53264 6.23677,-3.97326"
       style="font-size:98.82904053000000033px;font-style:normal;font-variant:normal;font-weight:normal;font-stretch:normal;line-height:-1333716.40625000000000000%;letter-spacing:-2.91019940000000021;fill:#c83737;fill-opacity:1;stroke:none;font-family:Bebas Neue;-inkscape-font-specification:Bebas Neue"
       id="path2952" />
    <path
       d="m 372.15814,214.23596 -16.69844,10.63808 30.7996,48.34569 17.40258,-11.08667 c 11.06522,-7.04932 14.24707,-14.70796 9.49513,-22.167 l -2.50796,-3.93672 c -3.25596,-5.11082 -7.90157,-7.29734 -14.84855,-5.10484 3.91708,-4.72865 4.10614,-9.31553 0.93819,-14.28822 l -1.09999,-1.72664 c -4.75193,-7.45903 -12.01297,-7.97934 -23.48056,-0.67368 m 16.23562,27.03873 c 5.02965,-3.20424 8.0221,-3.16872 10.88206,1.32051 l 2.68397,4.21299 c 2.28797,3.59139 1.02409,6.04721 -2.69785,8.41834 l -6.33736,4.03734 -9.45987,-14.84903 4.92905,-3.14015 M 376.2563,221.33474 c 3.92312,-2.4993 6.6012,-2.06931 8.80117,1.38395 l 1.71597,2.69354 c 2.46397,3.86765 0.74113,6.71296 -3.38318,9.34043 l -4.3255,2.75565 -8.13989,-12.77707 5.33143,-3.3965"
       style="font-size:98.82904053000000033px;font-style:normal;font-variant:normal;font-weight:normal;font-stretch:normal;line-height:-1333716.40625000000000000%;letter-spacing:-2.91019940000000021;fill:#c83737;fill-opacity:1;stroke:none;font-family:Bebas Neue;-inkscape-font-specification:Bebas Neue"
       id="path2954" />
    <path
       d="m 410.60727,205.37362 c -2.19998,-3.45327 -0.82291,-6.17538 2.69784,-8.41834 3.52075,-2.24297 6.5698,-2.3406 8.76977,1.11266 l 16.63178,26.10668 c 2.19998,3.45326 0.82291,6.17537 -2.69784,8.41834 -3.52075,2.24296 -6.5698,2.3406 -8.76977,-1.11267 l -16.63178,-26.10667 m 5.25856,32.67254 c 4.92793,7.73531 13.67889,8.37448 24.54293,1.45333 10.86404,-6.92116 13.98307,-15.12235 9.05514,-22.85765 l -16.0158,-25.13977 c -4.92793,-7.7353 -13.6789,-8.37448 -24.54293,-1.45332 -10.86404,6.92115 -13.98307,15.12235 -9.05514,22.85765 l 16.0158,25.13976"
       style="font-size:98.82904053000000033px;font-style:normal;font-variant:normal;font-weight:normal;font-stretch:normal;line-height:-1333716.40625000000000000%;letter-spacing:-2.91019940000000021;fill:#c83737;fill-opacity:1;stroke:none;font-family:Bebas Neue;-inkscape-font-specification:Bebas Neue"
       id="path2956" />
    <path
       d="m 455.37026,161.22399 2.80146,23.26605 -19.70108,-12.4998 -11.4676,7.30566 26.52799,16.11245 3.46686,32.74593 10.36108,-6.60074 -3.03387,-24.9628 21.24121,13.36345 11.66879,-7.43384 -28.21273,-16.98107 -3.39161,-30.85194 -10.2605,6.53665"
       style="font-size:98.82904053000000033px;font-style:normal;font-variant:normal;font-weight:normal;font-stretch:normal;line-height:-1333716.40625000000000000%;letter-spacing:-2.91019940000000021;fill:#c83737;fill-opacity:1;stroke:none;font-family:Bebas Neue;-inkscape-font-specification:Bebas Neue"
       id="path2958" />
  </g>
</svg>
