<?xml version="1.0" encoding="UTF-8" standalone="no"?>
<!--
Licensed to the Apache Software Foundation (ASF) under one
or more contributor license agreements.  See the NOTICE file
distributed with this work for additional information
regarding copyright ownership.  The ASF licenses this file
to you under the Apache License, Version 2.0 (the
"License"); you may not use this file except in compliance
with the License.  You may obtain a copy of the License at

  http://www.apache.org/licenses/LICENSE-2.0

Unless required by applicable law or agreed to in writing,
software distributed under the License is distributed on an
"AS IS" BASIS, WITHOUT WARRANTIES OR CONDITIONS OF ANY
KIND, either express or implied.  See the License for the
specific language governing permissions and limitations
under the License.
-->

<!-- Created with Inkscape (http://www.inkscape.org/) -->

<svg
   xmlns:dc="http://purl.org/dc/elements/1.1/"
   xmlns:cc="http://creativecommons.org/ns#"
   xmlns:rdf="http://www.w3.org/1999/02/22-rdf-syntax-ns#"
   xmlns:svg="http://www.w3.org/2000/svg"
   xmlns="http://www.w3.org/2000/svg"
   xmlns:sodipodi="http://sodipodi.sourceforge.net/DTD/sodipodi-0.dtd"
   xmlns:inkscape="http://www.inkscape.org/namespaces/inkscape"
   id="svg2883"
   version="1.1"
   inkscape:version="0.47 r22583"
   width="700"
   height="525"
   sodipodi:docname="src-pre-release.svg"
   inkscape:export-filename="/home/cvillaronga/Dropbox/Clientes/TRIPOLI/src-pre-release.png"
   inkscape:export-xdpi="120"
   inkscape:export-ydpi="120">
  <metadata
     id="metadata2889">
    <rdf:RDF>
      <cc:Work
         rdf:about="">
        <dc:format>image/svg+xml</dc:format>
        <dc:type
           rdf:resource="http://purl.org/dc/dcmitype/StillImage" />
        <dc:title></dc:title>
      </cc:Work>
    </rdf:RDF>
  </metadata>
  <defs
     id="defs2887">
    <inkscape:perspective
       sodipodi:type="inkscape:persp3d"
       inkscape:vp_x="0 : 0.5 : 1"
       inkscape:vp_y="0 : 1000 : 0"
       inkscape:vp_z="1 : 0.5 : 1"
       inkscape:persp3d-origin="0.5 : 0.33333333 : 1"
       id="perspective2891" />
  </defs>
  <sodipodi:namedview
     pagecolor="#ffffff"
     bordercolor="#666666"
     borderopacity="1"
     objecttolerance="10"
     gridtolerance="10"
     guidetolerance="10"
     inkscape:pageopacity="0"
     inkscape:pageshadow="2"
     inkscape:window-width="1680"
     inkscape:window-height="1000"
     id="namedview2885"
     showgrid="false"
     inkscape:zoom="0.93714286"
     inkscape:cx="123.15781"
     inkscape:cy="310.34192"
     inkscape:window-x="0"
     inkscape:window-y="0"
     inkscape:window-maximized="1"
     inkscape:current-layer="svg2883" />
  <g
     id="g2852"
     style="opacity:0.7">
    <path
       inkscape:export-ydpi="120"
       inkscape:export-xdpi="120"
       id="rect3675"
       d="M 522.9375 101.4375 C 522.54275 101.43077 522.14584 101.43833 521.75 101.46875 C 511.27528 103.59347 503.94853 112.35323 494.53125 116.9375 C 439.14981 152.32344 383.67646 187.55992 328.21875 222.84375 L 330.375 226.21875 C 383.48372 192.4663 436.61556 158.74152 489.59375 124.8125 C 500.93123 119.18811 510.0708 109.27832 522.21875 105.46875 C 522.53688 105.44046 522.86622 105.42328 523.1875 105.4375 C 524.15133 105.48015 525.1085 105.71552 526 106.0625 C 534.04446 114.19656 540.08885 124.12048 546.0625 134.125 L 549.4375 131.96875 C 543.51123 122.4019 537.50176 112.89317 530.625 104.0625 C 528.40577 102.42368 525.70076 101.4846 522.9375 101.4375 z M 552.53125 136.9375 L 549.09375 139.15625 C 551.70444 143.50637 554.3702 147.83085 557.21875 151.96875 C 561.36233 158.18083 569.42612 166.08822 564.4375 173.96875 C 501.42144 214.88866 438.03965 255.30933 374.59375 295.65625 L 376.75 299 C 440.034 258.72085 503.28736 218.392 566.34375 177.8125 C 573.00109 171.55682 569.78713 161.11999 564.25 155.3125 C 560.18998 149.29837 556.35574 143.12818 552.53125 136.9375 z M 323.28125 226 C 259.98729 266.27249 196.71197 306.59701 133.65625 347.1875 C 126.99891 353.44318 130.21287 363.88001 135.75 369.6875 C 139.81734 375.68005 143.6565 381.84317 147.46875 388.03125 L 150.875 385.875 C 148.42638 381.82014 145.94532 377.78574 143.34375 373.875 C 139.20855 367.34687 130.41934 359.31068 135.5625 351.03125 C 198.5574 310.09303 261.95794 269.70406 325.40625 229.375 L 323.28125 226 z M 369.65625 298.8125 C 312.01983 335.45892 254.33061 372.04395 196.8125 408.84375 C 189.42671 412.46374 182.66466 421.67778 173.625 418.84375 C 165.89043 410.48752 159.82963 400.72624 153.90625 390.90625 L 150.5625 393.03125 C 156.52898 402.68986 162.5831 412.28908 169.59375 421.125 C 176.51022 426.27792 185.56635 422.16947 191.25 417.125 C 251.37625 378.73577 311.58928 340.46372 371.78125 302.15625 L 369.65625 298.8125 z "
       style="fill:#d4aa00;fill-opacity:0.94117647000000004;stroke:none" />
    <path
       d="m 166.86216,345.13953 -16.29607,10.38174 30.79961,48.34569 11.06523,-7.04932 -11.57186,-18.16417 5.23084,-3.33241 c 11.06522,-7.04933 13.81329,-14.7229 8.88535,-22.4582 l -4.00394,-6.28494 c -4.92794,-7.73531 -13.04394,-8.48771 -24.10916,-1.43839 m 4.39994,6.90653 c 3.52076,-2.24296 6.13602,-2.35553 8.33599,1.09773 l 4.61994,7.25185 c 2.19997,3.45326 0.99269,5.77592 -2.52806,8.01889 l -5.23084,3.33241 -10.42786,-16.36847 5.23083,-3.33241"
       style="font-size:98.82904053000000033px;font-style:normal;font-variant:normal;font-weight:normal;font-stretch:normal;line-height:-1333716.40625000000000000%;letter-spacing:-2.91019940000000021;fill:#d4aa00;fill-opacity:1;stroke:none;font-family:Bebas Neue;-inkscape-font-specification:Bebas Neue"
       id="path2819" />
    <path
       d="m 250.72521,359.68008 c -2.2505,-1.09076 -3.45109,-2.75331 -4.94707,-5.10153 l -4.75193,-7.45905 c -3.21196,-5.04176 -7.35462,-7.5487 -13.89921,-5.61253 3.91706,-4.72866 4.16273,-9.44868 0.99477,-14.42138 l -2.41996,-3.79859 c -4.75194,-7.45904 -12.01298,-7.97935 -23.48057,-0.67369 l -16.69844,10.63808 30.7996,48.3457 11.06523,-7.04933 -12.53984,-19.68361 3.82254,-2.43522 c 5.02964,-3.20424 8.29869,-2.95653 11.15865,1.53271 l 4.83993,7.59717 c 2.50797,3.93672 3.39434,4.44011 4.78988,5.29877 l 11.26642,-7.1775 M 206.3194,329.7121 c 3.92313,-2.49931 6.6012,-2.06931 8.80117,1.38395 l 3.03596,4.7655 c 2.46397,3.86765 0.74113,6.71296 -3.38318,9.34043 l -4.3255,2.75565 -9.45988,-14.84903 5.33143,-3.3965"
       style="font-size:98.82904053000000033px;font-style:normal;font-variant:normal;font-weight:normal;font-stretch:normal;line-height:-1333716.40625000000000000%;letter-spacing:-2.91019940000000021;fill:#d4aa00;fill-opacity:1;stroke:none;font-family:Bebas Neue;-inkscape-font-specification:Bebas Neue"
       id="path2821" />
    <path
       d="m 238.4988,309.21156 19.11267,-12.17611 -4.39994,-6.90653 -30.17791,19.22544 30.79961,48.3457 30.1779,-19.22545 -4.39994,-6.90652 -19.11267,12.17611 -9.01989,-14.15838 15.18954,-9.67681 -4.39994,-6.90652 -15.18954,9.6768 -8.57989,-13.46773"
       style="font-size:98.82904053000000033px;font-style:normal;font-variant:normal;font-weight:normal;font-stretch:normal;line-height:-1333716.40625000000000000%;letter-spacing:-2.91019940000000021;fill:#d4aa00;fill-opacity:1;stroke:none;font-family:Bebas Neue;-inkscape-font-specification:Bebas Neue"
       id="path2823" />
    <path
       d="m 274.10479,315.65685 20.1186,-12.81697 -4.39994,-6.90653 -20.11861,12.81697 4.39995,6.90653"
       style="font-size:98.82904053000000033px;font-style:normal;font-variant:normal;font-weight:normal;font-stretch:normal;line-height:-1333716.40625000000000000%;letter-spacing:-2.91019940000000021;fill:#d4aa00;fill-opacity:1;stroke:none;font-family:Bebas Neue;-inkscape-font-specification:Bebas Neue"
       id="path2825" />
    <path
       d="m 346.36122,298.75323 c -2.25051,-1.09076 -3.45109,-2.75331 -4.94708,-5.10153 l -4.75193,-7.45905 c -3.21196,-5.04176 -7.35462,-7.5487 -13.89921,-5.61253 3.91707,-4.72866 4.16273,-9.44868 0.99478,-14.42138 l -2.41997,-3.79859 c -4.75194,-7.45904 -12.01298,-7.97935 -23.48057,-0.67369 l -16.69844,10.63808 30.7996,48.3457 11.06523,-7.04933 -12.53984,-19.68361 3.82254,-2.43522 c 5.02965,-3.20424 8.29869,-2.95653 11.15865,1.5327 l 4.83993,7.59718 c 2.50797,3.93672 3.39434,4.4401 4.78989,5.29877 l 11.26642,-7.1775 m -44.40581,-29.96798 c 3.92312,-2.49931 6.60119,-2.06931 8.80116,1.38395 l 3.03596,4.7655 c 2.46397,3.86765 0.74113,6.71295 -3.38318,9.34043 l -4.3255,2.75565 -9.45987,-14.84904 5.33143,-3.39649"
       style="font-size:98.82904053000000033px;font-style:normal;font-variant:normal;font-weight:normal;font-stretch:normal;line-height:-1333716.40625000000000000%;letter-spacing:-2.91019940000000021;fill:#d4aa00;fill-opacity:1;stroke:none;font-family:Bebas Neue;-inkscape-font-specification:Bebas Neue"
       id="path2827" />
    <path
       d="m 334.13479,248.28472 19.11268,-12.17612 -4.39995,-6.90653 -30.1779,19.22544 30.79961,48.3457 30.1779,-19.22544 -4.39994,-6.90653 -19.11268,12.17612 -9.01989,-14.15839 15.18955,-9.67681 -4.39994,-6.90652 -15.18955,9.67681 -8.57989,-13.46773"
       style="font-size:98.82904053000000033px;font-style:normal;font-variant:normal;font-weight:normal;font-stretch:normal;line-height:-1333716.40625000000000000%;letter-spacing:-2.91019940000000021;fill:#d4aa00;fill-opacity:1;stroke:none;font-family:Bebas Neue;-inkscape-font-specification:Bebas Neue"
       id="path2829" />
    <path
       d="m 383.44358,275.12916 29.27257,-18.64868 -4.39995,-6.90653 -18.20733,11.59936 -26.39967,-41.43917 -11.06522,7.04932 30.7996,48.3457"
       style="font-size:98.82904053000000033px;font-style:normal;font-variant:normal;font-weight:normal;font-stretch:normal;line-height:-1333716.40625000000000000%;letter-spacing:-2.91019940000000021;fill:#d4aa00;fill-opacity:1;stroke:none;font-family:Bebas Neue;-inkscape-font-specification:Bebas Neue"
       id="path2831" />
    <path
       d="m 399.33292,206.74893 19.11267,-12.17611 -4.39994,-6.90653 -30.17791,19.22545 30.7996,48.34569 30.17791,-19.22545 -4.39994,-6.90652 -19.11267,12.17611 -9.01989,-14.15838 15.18954,-9.67681 -4.39994,-6.90652 -15.18954,9.6768 -8.57989,-13.46773"
       style="font-size:98.82904053000000033px;font-style:normal;font-variant:normal;font-weight:normal;font-stretch:normal;line-height:-1333716.40625000000000000%;letter-spacing:-2.91019940000000021;fill:#d4aa00;fill-opacity:1;stroke:none;font-family:Bebas Neue;-inkscape-font-specification:Bebas Neue"
       id="path2833" />
    <path
       d="m 442.38677,169.611 -16.19547,10.31765 19.53318,55.5232 10.1599,-6.47257 -3.67666,-9.9889 13.58005,-8.65145 7.4992,7.55368 11.16582,-7.11341 -42.06602,-41.1682 m -3.19507,14.07539 20.90723,21.05261 -10.66286,6.79299 -10.24437,-27.8456"
       style="font-size:98.82904053000000033px;font-style:normal;font-variant:normal;font-weight:normal;font-stretch:normal;line-height:-1333716.40625000000000000%;letter-spacing:-2.91019940000000021;fill:#d4aa00;fill-opacity:1;stroke:none;font-family:Bebas Neue;-inkscape-font-specification:Bebas Neue"
       id="path2835" />
    <path
       d="m 461.72945,173.60049 c 8.79988,13.81304 31.61538,1.89959 37.95129,11.84497 2.19997,3.45326 0.77891,6.10632 -2.74184,8.34928 -3.52075,2.24297 -6.52579,2.40965 -8.72576,-1.04361 l -2.19997,-3.45326 -10.46167,6.66482 1.89197,2.96981 c 4.92793,7.7353 13.37711,8.56673 24.24115,1.64558 10.86403,-6.92115 13.68129,-14.9301 8.75335,-22.6654 -8.79987,-13.81304 -31.61537,-1.8996 -37.95128,-11.84498 -2.19997,-3.45326 -1.0241,-6.04721 2.49666,-8.29018 3.52075,-2.24296 6.3686,-2.21241 8.56857,1.24085 l 1.27598,2.00289 10.46167,-6.66482 -0.96798,-1.51943 c -4.92793,-7.73531 -13.27653,-8.63082 -24.03997,-1.77376 -10.76344,6.85707 -13.4801,14.80193 -8.55217,22.53724"
       style="font-size:98.82904053000000033px;font-style:normal;font-variant:normal;font-weight:normal;font-stretch:normal;line-height:-1333716.40625000000000000%;letter-spacing:-2.91019940000000021;fill:#d4aa00;fill-opacity:1;stroke:none;font-family:Bebas Neue;-inkscape-font-specification:Bebas Neue"
       id="path2837" />
    <path
       d="m 505.7748,138.93798 19.11267,-12.17611 -4.39995,-6.90653 -30.1779,19.22544 30.79961,48.34569 30.1779,-19.22544 -4.39995,-6.90652 -19.11266,12.17611 -9.01989,-14.15839 15.18954,-9.6768 -4.39994,-6.90653 -15.18954,9.6768 -8.57989,-13.46772"
       style="font-size:98.82904053000000033px;font-style:normal;font-variant:normal;font-weight:normal;font-stretch:normal;line-height:-1333716.40625000000000000%;letter-spacing:-2.91019940000000021;fill:#d4aa00;fill-opacity:1;stroke:none;font-family:Bebas Neue;-inkscape-font-specification:Bebas Neue"
       id="path2839" />
  </g>
</svg>
