<?xml version="1.0" encoding="UTF-8" standalone="no"?>
<!--
Licensed to the Apache Software Foundation (ASF) under one
or more contributor license agreements.  See the NOTICE file
distributed with this work for additional information
regarding copyright ownership.  The ASF licenses this file
to you under the Apache License, Version 2.0 (the
"License"); you may not use this file except in compliance
with the License.  You may obtain a copy of the License at

  http://www.apache.org/licenses/LICENSE-2.0

Unless required by applicable law or agreed to in writing,
software distributed under the License is distributed on an
"AS IS" BASIS, WITHOUT WARRANTIES OR CONDITIONS OF ANY
KIND, either express or implied.  See the License for the
specific language governing permissions and limitations
under the License.
-->

<!-- Created with Inkscape (http://www.inkscape.org/) -->

<svg
   xmlns:dc="http://purl.org/dc/elements/1.1/"
   xmlns:cc="http://creativecommons.org/ns#"
   xmlns:rdf="http://www.w3.org/1999/02/22-rdf-syntax-ns#"
   xmlns:svg="http://www.w3.org/2000/svg"
   xmlns="http://www.w3.org/2000/svg"
   xmlns:sodipodi="http://sodipodi.sourceforge.net/DTD/sodipodi-0.dtd"
   xmlns:inkscape="http://www.inkscape.org/namespaces/inkscape"
   id="svg2883"
   version="1.1"
   inkscape:version="0.47 r22583"
   width="700"
   height="525"
   sodipodi:docname="src-retired.svg"
   inkscape:export-filename="/home/cvillaronga/Dropbox/Clientes/TRIPOLI/graveyard.png"
   inkscape:export-xdpi="120"
   inkscape:export-ydpi="120">
  <metadata
     id="metadata2889">
    <rdf:RDF>
      <cc:Work
         rdf:about="">
        <dc:format>image/svg+xml</dc:format>
        <dc:type
           rdf:resource="http://purl.org/dc/dcmitype/StillImage" />
        <dc:title></dc:title>
      </cc:Work>
    </rdf:RDF>
  </metadata>
  <defs
     id="defs2887">
    <inkscape:perspective
       sodipodi:type="inkscape:persp3d"
       inkscape:vp_x="0 : 0.5 : 1"
       inkscape:vp_y="0 : 1000 : 0"
       inkscape:vp_z="1 : 0.5 : 1"
       inkscape:persp3d-origin="0.5 : 0.33333333 : 1"
       id="perspective2891" />
  </defs>
  <sodipodi:namedview
     pagecolor="#ffffff"
     bordercolor="#666666"
     borderopacity="1"
     objecttolerance="10"
     gridtolerance="10"
     guidetolerance="10"
     inkscape:pageopacity="0"
     inkscape:pageshadow="2"
     inkscape:window-width="1680"
     inkscape:window-height="1000"
     id="namedview2885"
     showgrid="false"
     inkscape:zoom="0.93714286"
     inkscape:cx="417.83122"
     inkscape:cy="237.52918"
     inkscape:window-x="0"
     inkscape:window-y="0"
     inkscape:window-maximized="1"
     inkscape:current-layer="svg2883" />
  <path
     style="fill:#808080;fill-opacity:0.94117647000000004;stroke:none;opacity:0.7"
     d="m 522.9375,101.46978 c -0.39475,-0.007 -0.79166,8.3e-4 -1.1875,0.0312 -10.47472,2.12472 -17.80147,10.88448 -27.21875,15.46875 -55.38144,35.38594 -110.85479,70.62242 -166.3125,105.90625 l 2.15625,3.375 c 53.10872,-33.75245 106.24056,-67.47723 159.21875,-101.40625 11.33748,-5.62439 20.47705,-15.53418 32.625,-19.34375 0.31813,-0.0283 0.64747,-0.0455 0.96875,-0.0312 0.96383,0.0426 1.921,0.27802 2.8125,0.625 8.04446,8.13406 14.08885,18.05798 20.0625,28.0625 l 3.375,-2.15625 c -5.92627,-9.56685 -11.93574,-19.07558 -18.8125,-27.90625 -2.21923,-1.63882 -4.92424,-2.5779 -7.6875,-2.625 z m 29.59375,35.5 -3.4375,2.21875 c 2.61069,4.35012 5.27645,8.6746 8.125,12.8125 4.14358,6.21208 12.20737,14.11947 7.21875,22 -63.01606,40.91991 -126.39785,81.34058 -189.84375,121.6875 l 2.15625,3.34375 c 63.284,-40.27915 126.53736,-80.608 189.59375,-121.1875 6.65734,-6.25568 3.44338,-16.69251 -2.09375,-22.5 -4.06002,-6.01413 -7.89426,-12.18432 -11.71875,-18.375 z m -229.25,89.0625 c -63.29396,40.27249 -126.56928,80.59701 -189.625,121.1875 -6.65734,6.25568 -3.44338,16.69251 2.09375,22.5 4.06734,5.99255 7.9065,12.15567 11.71875,18.34375 l 3.40625,-2.15625 c -2.44862,-4.05486 -4.92968,-8.08926 -7.53125,-12 -4.1352,-6.52813 -12.92441,-14.56432 -7.78125,-22.84375 62.9949,-40.93822 126.39544,-81.32719 189.84375,-121.65625 l -2.125,-3.375 z m 46.375,72.8125 c -57.63642,36.64642 -115.32564,73.23145 -172.84375,110.03125 -7.38579,3.61999 -14.14784,12.83403 -23.1875,10 -7.73457,-8.35623 -13.79537,-18.11751 -19.71875,-27.9375 l -3.34375,2.125 c 5.96648,9.65861 12.0206,19.25783 19.03125,28.09375 6.91647,5.15292 15.9726,1.04447 21.65625,-4 60.12625,-38.38923 120.33928,-76.66128 180.53125,-114.96875 l -2.125,-3.34375 z"
     id="rect3675"
     inkscape:export-xdpi="120"
     inkscape:export-ydpi="120" />
  <path
     id="path2893"
     style="font-size:98.82904053px;font-style:normal;font-variant:normal;font-weight:normal;font-stretch:normal;line-height:-1620944601953075200%;letter-spacing:1.6629715;opacity:0.7;fill:#808080;fill-opacity:1;stroke:none;font-family:Bebas Neue;-inkscape-font-specification:Bebas Neue"
     d="m 272.90729,345.59704 c -2.25051,-1.09076 -3.45109,-2.75331 -4.94707,-5.10153 l -4.75194,-7.45905 c -3.21195,-5.04176 -7.35461,-7.5487 -13.8992,-5.61253 3.91706,-4.72866 4.16273,-9.44868 0.99477,-14.42138 l -2.41997,-3.79859 c -4.75193,-7.45904 -12.01297,-7.97934 -23.48056,-0.67368 l -16.69844,10.63808 30.7996,48.34569 11.06523,-7.04933 -12.53984,-19.68361 3.82254,-2.43522 c 5.02964,-3.20424 8.29868,-2.95654 11.15865,1.53271 l 4.83993,7.59718 c 2.50797,3.93671 3.39434,4.4401 4.78988,5.29876 l 11.26642,-7.1775 m -44.40581,-29.96798 c 3.92312,-2.49931 6.6012,-2.06931 8.80117,1.38395 l 3.03596,4.7655 c 2.46397,3.86765 0.74113,6.71296 -3.38318,9.34043 l -4.3255,2.75565 -9.45988,-14.84904 5.33143,-3.39649" />
  <path
     id="path2895"
     style="font-size:98.82904053px;font-style:normal;font-variant:normal;font-weight:normal;font-stretch:normal;line-height:-1620944601953075200%;letter-spacing:1.6629715;opacity:0.7;fill:#808080;fill-opacity:1;stroke:none;font-family:Bebas Neue;-inkscape-font-specification:Bebas Neue"
     d="m 265.33567,292.16309 19.11268,-12.17612 -4.39994,-6.90652 -30.17791,19.22544 30.79961,48.3457 30.1779,-19.22545 -4.39995,-6.90653 -19.11267,12.17611 -9.01988,-14.15837 15.18954,-9.67681 -4.39994,-6.90653 -15.18954,9.67681 -8.5799,-13.46773" />
  <path
     id="path2897"
     style="font-size:98.82904053px;font-style:normal;font-variant:normal;font-weight:normal;font-stretch:normal;line-height:-1620944601953075200%;letter-spacing:1.6629715;opacity:0.7;fill:#808080;fill-opacity:1;stroke:none;font-family:Bebas Neue;-inkscape-font-specification:Bebas Neue"
     d="m 289.68061,276.65365 11.5682,-7.36975 26.39966,41.43917 11.06523,-7.04933 -26.39966,-41.43917 11.5682,-7.36976 -4.39994,-6.90652 -34.20163,21.78884 4.39994,6.90652" />
  <path
     id="path2899"
     style="font-size:98.82904053px;font-style:normal;font-variant:normal;font-weight:normal;font-stretch:normal;line-height:-1620944601953075200%;letter-spacing:1.6629715;opacity:0.7;fill:#808080;fill-opacity:1;stroke:none;font-family:Bebas Neue;-inkscape-font-specification:Bebas Neue"
     d="m 356.74958,292.18362 11.06523,-7.04933 -30.7996,-48.3457 -11.06524,7.04934 30.79961,48.34569" />
  <path
     id="path2901"
     style="font-size:98.82904053px;font-style:normal;font-variant:normal;font-weight:normal;font-stretch:normal;line-height:-1620944601953075200%;letter-spacing:1.6629715;opacity:0.7;fill:#808080;fill-opacity:1;stroke:none;font-family:Bebas Neue;-inkscape-font-specification:Bebas Neue"
     d="m 411.90271,257.0472 c -2.25052,-1.09076 -3.4511,-2.75331 -4.94707,-5.10153 l -4.75195,-7.45905 c -3.21195,-5.04176 -7.35461,-7.54869 -13.8992,-5.61253 3.91707,-4.72866 4.16273,-9.44868 0.99478,-14.42138 l -2.41997,-3.79859 c -4.75194,-7.45904 -12.01297,-7.97935 -23.48057,-0.67368 l -16.69844,10.63807 30.79961,48.3457 11.06522,-7.04933 -12.53984,-19.6836 3.82255,-2.43523 c 5.02963,-3.20423 8.29868,-2.95654 11.15864,1.53271 l 4.83994,7.59717 c 2.50796,3.93672 3.39433,4.44011 4.78988,5.29877 l 11.26642,-7.1775 m -44.40582,-29.96798 c 3.92313,-2.49931 6.60121,-2.06931 8.80117,1.38394 l 3.03597,4.76551 c 2.46396,3.86765 0.74113,6.71296 -3.38319,9.34043 l -4.3255,2.75565 -9.45988,-14.84904 5.33143,-3.39649" />
  <path
     id="path2903"
     style="font-size:98.82904053px;font-style:normal;font-variant:normal;font-weight:normal;font-stretch:normal;line-height:-1620944601953075200%;letter-spacing:1.6629715;opacity:0.7;fill:#808080;fill-opacity:1;stroke:none;font-family:Bebas Neue;-inkscape-font-specification:Bebas Neue"
     d="m 404.3311,203.61324 19.11266,-12.17611 -4.39994,-6.90652 -30.1779,19.22544 30.7996,48.3457 30.1779,-19.22545 -4.39994,-6.90653 -19.11267,12.17611 -9.01988,-14.15838 15.18954,-9.6768 -4.39994,-6.90653 -15.18954,9.67681 -8.57989,-13.46774" />
  <path
     id="path2905"
     style="font-size:98.82904053px;font-style:normal;font-variant:normal;font-weight:normal;font-stretch:normal;line-height:-1620944601953075200%;letter-spacing:1.6629715;opacity:0.7;fill:#808080;fill-opacity:1;stroke:none;font-family:Bebas Neue;-inkscape-font-specification:Bebas Neue"
     d="m 458.29466,227.49227 17.50319,-11.15076 c 11.06522,-7.04932 13.81328,-14.7229 8.88535,-22.45821 l -15.5758,-24.4491 c -4.92793,-7.7353 -13.04394,-8.4877 -24.10915,-1.43839 l -17.50319,11.15077 30.7996,48.34569 M 449.197,175.03051 c 3.52075,-2.24296 6.4252,-2.34556 8.62517,1.1077 l 16.01579,25.13976 c 2.19997,3.45326 0.87951,6.04221 -2.64124,8.28518 l -6.23677,3.97326 -21.99971,-34.53264 6.23676,-3.97326" />
</svg>
